<svg width="21" height="26" viewBox="0 0 21 26" fill="none" xmlns="http://www.w3.org/2000/svg">
<path d="M21 8.83C21 14.83 17.6 19.39 12.59 19.39C11.9127 19.3968 11.2419 19.2585 10.6226 18.9842C10.0034 18.7099 9.45006 18.3061 9 17.8C8.97929 17.7724 8.95108 17.7513 8.91872 17.7392C8.88636 17.7272 8.85122 17.7247 8.81749 17.7321C8.78376 17.7395 8.75286 17.7564 8.72849 17.7809C8.70411 17.8053 8.68728 17.8363 8.68 17.87C8.44 18.82 7.84 21.16 7.68 21.71C7.39 22.71 5.68 24.53 4.84 25.59C4.8186 25.6223 4.78737 25.6468 4.75095 25.6599C4.71453 25.673 4.67485 25.674 4.6378 25.6628C4.60075 25.6515 4.56831 25.6287 4.54529 25.5976C4.52227 25.5664 4.50989 25.5287 4.51 25.49C4.35226 23.9306 4.35226 22.3594 4.51 20.8L6.51 12.45C6.52068 12.4175 6.52068 12.3825 6.51 12.35C6.2034 11.6052 6.05361 10.8052 6.07 10C6.07 7.72 7.41 6 9.07 6C9.3652 5.99408 9.65828 6.05107 9.92974 6.16719C10.2012 6.28331 10.4448 6.4559 10.6444 6.67347C10.844 6.89104 10.995 7.14862 11.0874 7.42907C11.1797 7.70951 11.2113 8.0064 11.18 8.3C11.18 9.71 10.27 11.81 9.8 13.76C9.70252 14.1262 9.69353 14.5104 9.77377 14.8808C9.85401 15.2511 10.0212 15.5971 10.2615 15.8902C10.5018 16.1832 10.8083 16.4149 11.1558 16.5662C11.5033 16.7174 11.8818 16.7839 12.26 16.76C15.26 16.76 17.2 13.01 17.2 8.57C17.2 5.2 14.9 2.67 10.71 2.67C9.71626 2.61984 8.7227 2.77225 7.78969 3.11797C6.85668 3.46369 6.0037 3.99549 5.28258 4.68107C4.56147 5.36665 3.98727 6.19168 3.59487 7.10604C3.20248 8.0204 3.00009 9.005 3 10C2.95386 11.0888 3.30978 12.1566 4 13C4.12516 13.1 4.21501 13.2374 4.2564 13.3922C4.29778 13.5469 4.28853 13.7109 4.23 13.86C4.15 14.15 3.98 14.86 3.91 15.1C3.89656 15.184 3.86308 15.2636 3.81238 15.332C3.76169 15.4003 3.69529 15.4555 3.61878 15.4928C3.54227 15.53 3.45791 15.5483 3.37283 15.5461C3.28775 15.5439 3.20446 15.5212 3.13 15.48C1 14.64 0 12.28 0 9.63C0 5.25 3.73 0 11.14 0C17.09 0 21 4.26 21 8.83Z" fill="#222222"/>
</svg>
