<?xml version="1.0" encoding="utf-8"?><svg xmlns="http://www.w3.org/2000/svg" xmlns:xlink="http://www.w3.org/1999/xlink"><symbol viewBox="0 0 10 17" id="arrow-right" xmlns="http://www.w3.org/2000/svg"><path d="M0 17l8.22-8.416L.035.001 1.802 0 10 8.596 1.792 17H0z"/></symbol><symbol viewBox="0 0 14 24" id="arrow-slide-next" xmlns="http://www.w3.org/2000/svg"><path d="M0 24l11.508-11.881L.048.001 2.524 0 14 12.136 2.509 24H0z"/></symbol><symbol viewBox="0 0 24 15" id="be" xmlns="http://www.w3.org/2000/svg"><path d="M22 2h-7V0h7v2zm1.726 10c-.442 1.297-2.029 3-5.101 3-3.074 0-5.564-1.729-5.564-5.675 0-3.91 2.325-5.92 5.466-5.92 3.082 0 4.964 1.782 5.375 4.426.078.506.109 1.188.095 2.14H15.97c.13 3.211 3.483 3.312 4.588 2.029h3.168zM16.04 8h4.965c-.105-1.547-1.136-2.219-2.477-2.219-1.466 0-2.277.768-2.488 2.219zm-9.574 6.988H0V.021h6.953c5.476.081 5.58 5.444 2.72 6.906 3.461 1.26 3.577 8.061-3.207 8.061zM3 6h3.584c2.508 0 2.906-3-.312-3H3v3zm3.391 3H3v3.016h3.341c3.055 0 2.868-3.016.05-3.016z"/></symbol><symbol viewBox="0 0 28 28" id="call" xmlns="http://www.w3.org/2000/svg"><path d="M28 19.45v6.84c0 .476-.192.931-.534 1.262a1.582 1.582 0 01-1.17.446 27.438 27.438 0 01-18.257-8.036A27.438 27.438 0 01.001 1.703 1.58 1.58 0 01.448.533 1.76 1.76 0 011.71 0h6.84a1.69 1.69 0 011.662 1.442l.904 6.324a1.688 1.688 0 01-.475 1.425l-2.683 2.683a.564.564 0 00-.094.683 22.965 22.965 0 007.578 7.578c.223.129.504.09.684-.094l2.682-2.682a1.686 1.686 0 011.426-.475l6.324.903A1.689 1.689 0 0128 19.45z"/></symbol><symbol viewBox="0 0 48 47" id="close" xmlns="http://www.w3.org/2000/svg"><path d="M1.293 45.512l43.84-43.84m1.415 43.84L2.708 1.672"/></symbol><symbol viewBox="0 0 21 26" id="pin" xmlns="http://www.w3.org/2000/svg"><path d="M21 8.83c0 6-3.4 10.56-8.41 10.56A4.74 4.74 0 019 17.8a.18.18 0 00-.272-.02.18.18 0 00-.048.09c-.24.95-.84 3.29-1 3.84-.29 1-2 2.82-2.84 3.88a.18.18 0 01-.33-.1 23.3 23.3 0 010-4.69l2-8.35a.16.16 0 000-.1A5.86 5.86 0 016.07 10c0-2.28 1.34-4 3-4a2.08 2.08 0 012.11 2.3c0 1.41-.91 3.51-1.38 5.46a2.39 2.39 0 002.46 3c3 0 4.94-3.75 4.94-8.19 0-3.37-2.3-5.9-6.49-5.9A7.34 7.34 0 003 10a4.44 4.44 0 001 3 .75.75 0 01.23.86c-.08.29-.25 1-.32 1.24a.53.53 0 01-.78.38C1 14.64 0 12.28 0 9.63 0 5.25 3.73 0 11.14 0 17.09 0 21 4.26 21 8.83z"/></symbol><symbol viewBox="0 0 20 19" id="tg" xmlns="http://www.w3.org/2000/svg"><path d="M19.966 1.405l-3.642 15.116a1.127 1.127 0 01-1.615.74l-4.606-2.394-2.179 3.588c-.592.978-2.092.554-2.092-.59v-3.998c0-.31.128-.604.35-.82l8.977-8.629c-.007-.108-.121-.201-.235-.122L4.21 11.803l-3.6-1.87c-.843-.438-.807-1.668.064-2.049L18.424.097c.85-.374 1.764.395 1.542 1.308z"/></symbol><symbol viewBox="0 0 24 14" id="vk" xmlns="http://www.w3.org/2000/svg"><path d="M23.873 12.643a1.682 1.682 0 00-.082-.16c-.416-.766-1.212-1.707-2.386-2.823l-.025-.025-.012-.013-.013-.013h-.013c-.533-.52-.87-.869-1.012-1.048-.258-.34-.316-.685-.175-1.035.1-.264.475-.821 1.125-1.673a93.7 93.7 0 00.812-1.086c1.441-1.959 2.066-3.21 1.874-3.756l-.074-.127c-.05-.077-.18-.147-.387-.211-.209-.064-.475-.075-.8-.032l-3.599.025a.457.457 0 00-.25.007l-.163.038-.062.032-.05.039a.561.561 0 00-.137.134.879.879 0 00-.125.223 21.066 21.066 0 01-1.337 2.875c-.308.528-.592.986-.85 1.373-.258.388-.475.673-.65.856-.175.183-.333.33-.475.44-.141.112-.25.158-.324.141a9.008 9.008 0 01-.213-.05.843.843 0 01-.281-.314 1.425 1.425 0 01-.144-.498 5.6 5.6 0 01-.044-.518c-.003-.144-.002-.349.007-.613.008-.264.012-.443.012-.536 0-.324.007-.675.019-1.054l.031-.901c.009-.222.013-.456.013-.703 0-.247-.015-.44-.044-.581a2.018 2.018 0 00-.131-.409.684.684 0 00-.256-.307 1.428 1.428 0 00-.419-.172C12.792.066 12.23.01 11.546.002 9.996-.015 9.001.087 8.56.309a1.69 1.69 0 00-.475.383c-.15.187-.171.29-.063.306.5.077.854.26 1.062.55l.075.153c.059.11.117.307.175.588.059.28.096.592.113.932a10.31 10.31 0 010 1.597c-.042.443-.081.788-.119 1.035a2.108 2.108 0 01-.169.6 2.549 2.549 0 01-.15.281.218.218 0 01-.062.064.918.918 0 01-.337.064c-.117 0-.259-.06-.425-.179a3.024 3.024 0 01-.519-.492c-.179-.208-.38-.5-.606-.875a15.383 15.383 0 01-.7-1.328l-.2-.37a32.182 32.182 0 01-.512-1.042 20.306 20.306 0 01-.575-1.323.84.84 0 00-.3-.408L4.712.806a.85.85 0 00-.2-.108 1.304 1.304 0 00-.287-.083L.8.64C.45.64.213.721.088.883L.038.96A.421.421 0 000 1.164c0 .094.025.209.075.345.5 1.201 1.043 2.36 1.63 3.475C2.294 6.1 2.804 7 3.237 7.68c.433.681.875 1.324 1.325 1.929.45.604.748.992.893 1.162.146.17.26.298.344.384l.312.306c.2.205.494.45.881.735.388.285.817.566 1.287.843a6.904 6.904 0 001.644.677 5.563 5.563 0 001.824.211h1.437c.292-.026.512-.12.662-.281l.05-.064a.859.859 0 00.094-.236c.029-.107.044-.224.044-.351a4.3 4.3 0 01.08-.99c.063-.294.134-.516.213-.665a1.633 1.633 0 01.482-.562.792.792 0 01.1-.045c.2-.068.434-.002.706.199.27.2.524.447.762.74.237.295.522.624.856.99.333.367.625.64.874.818l.25.154c.167.102.384.196.65.28.266.086.5.107.7.065l3.199-.051c.316 0 .562-.054.737-.16.175-.107.279-.224.312-.351.034-.128.035-.273.007-.435a1.629 1.629 0 00-.088-.338z"/></symbol><symbol viewBox="0 0 17 17" id="wa" xmlns="http://www.w3.org/2000/svg"><path fill-rule="evenodd" clip-rule="evenodd" d="M8.5 0C3.802 0 0 3.8 0 8.5c0 1.773.54 3.412 1.5 4.821a.425.425 0 01.054.366L.69 16.575l2.83-.975a.425.425 0 01.365.047A8.45 8.45 0 008.5 17c4.7 0 8.5-3.8 8.5-8.5S13.2 0 8.5 0zM5.02 3.705l1.548 2.557-.645.638a.425.425 0 00-.066.511c.983 1.702 2.148 3.027 3.779 3.745.16.072.347.037.471-.086l.684-.684 2.497 1.56c-.276.623-.637.994-1.05 1.21-.477.25-1.06.297-1.726.159-1.331-.276-2.94-1.323-4.25-2.663-1.31-1.34-2.324-2.97-2.583-4.297-.13-.663-.072-1.234.173-1.687.21-.39.569-.723 1.169-.963z"/></symbol></svg>