<svg width="17" height="17" viewBox="0 0 17 17" fill="none" xmlns="http://www.w3.org/2000/svg">
<path fill-rule="evenodd" clip-rule="evenodd" d="M8.50013 5.28361e-05C3.80191 5.28361e-05 0 3.79969 0 8.50019C0 10.2729 0.540593 11.9125 1.50084 13.3214C1.57318 13.4287 1.59275 13.5631 1.55391 13.6866L0.690613 16.5753L3.5196 15.5991V15.5992C3.64204 15.5583 3.77648 15.5755 3.88484 15.6456C5.20988 16.5053 6.79625 17.0003 8.49996 17.0003C13.2005 17.0003 17.0001 13.2006 17.0001 8.50013C17.0001 3.79964 13.2005 0 8.49996 0L8.50013 5.28361e-05ZM5.02043 3.7055L6.56764 6.26219L5.92342 6.89973L5.92356 6.89988C5.78867 7.03581 5.76155 7.24526 5.85716 7.41114C6.84021 9.11341 8.00488 10.4377 9.63569 11.1565C9.79563 11.2276 9.9827 11.1934 10.1072 11.0702L10.7911 10.3863L13.2881 11.9469C13.0116 12.5691 12.6512 12.9396 12.2389 13.1554C11.7613 13.4055 11.1781 13.4527 10.5123 13.3147C9.18094 13.0387 7.57278 11.9924 6.26228 10.6518C4.95178 9.31133 3.93757 7.68124 3.67907 6.35503C3.54982 5.69198 3.60689 5.12099 3.85176 4.66832C4.06255 4.27849 4.42067 3.94482 5.02057 3.70542L5.02043 3.7055Z" fill="#222222"/>
</svg>
