<svg width="141" height="88" viewBox="0 0 141 88" fill="none" xmlns="http://www.w3.org/2000/svg">
<path d="M77.2948 50.0039C76.6605 31.3665 59.8507 15.2213 40.428 14.6171C24.2525 14.1187 10.5841 22.35 4.48243 35.8673H6.08337C9.30034 29.2823 14.3448 23.679 20.6428 20.2053C29.9766 15.0551 41.606 15.3421 50.5622 21.0813C60.6964 27.5757 67.372 38.6463 67.372 51.2121C67.372 63.7779 60.6964 74.8637 50.5622 81.3429C41.606 87.0821 29.9464 87.4144 20.6277 82.2642C13.5292 78.3374 8.01657 72.7341 4.93552 65.7867H3.60645C9.14931 79.2285 22.9385 87.3389 37.9058 87.8071C59.9413 88.5018 78.0198 71.1483 77.2948 50.0039Z" fill="white"/>
<path d="M73.4436 0.495605C72.1296 5.61558 67.9762 9.60281 62.7656 10.6902C67.9762 11.7626 72.1296 15.7649 73.4436 20.8849C74.7575 15.7498 78.9109 11.7626 84.1215 10.6902C78.9109 9.61792 74.7575 5.63068 73.4436 0.495605Z" fill="white"/>
<path d="M9.0889 54.7161L4.89022 45.3975H0.751953V57.2837H3.30439V47.814L7.69941 57.2837H10.4784L14.8734 47.814V57.2837H17.441V45.3975H13.3027L9.0889 54.7161Z" fill="white"/>
<path d="M29.8556 45.9411C28.8135 45.4125 27.6053 45.1558 26.2158 45.1558C24.8414 45.1558 23.618 45.4125 22.5759 45.9411C21.5338 46.4546 20.7333 47.1796 20.1443 48.1009C19.5704 49.0222 19.2683 50.1096 19.2683 51.3481C19.2683 52.5865 19.5553 53.6588 20.1443 54.5952C20.7333 55.5165 21.5338 56.2415 22.5759 56.755C23.618 57.2685 24.8263 57.5253 26.2158 57.5253C27.6053 57.5253 28.8135 57.2685 29.8556 56.755C30.8978 56.2415 31.7133 55.5165 32.2872 54.5952C32.8763 53.674 33.1632 52.5865 33.1632 51.3481C33.1632 50.1096 32.8763 49.0373 32.2872 48.1009C31.7133 47.1796 30.8978 46.4546 29.8556 45.9411ZM29.9311 53.3568C29.5838 53.9307 29.1005 54.3687 28.4661 54.6708C27.8469 54.9728 27.0918 55.1239 26.2158 55.1239C25.3549 55.1239 24.6148 54.9728 23.9805 54.6708C23.3462 54.3536 22.8629 53.9307 22.5155 53.3568C22.1681 52.7829 22.002 52.1183 22.002 51.3481C22.002 50.5778 22.1681 49.9133 22.5155 49.3393C22.8478 48.7654 23.3462 48.3274 23.9805 48.0254C24.6148 47.7233 25.3549 47.5572 26.2158 47.5572C27.0918 47.5572 27.8318 47.7082 28.4661 48.0254C29.1005 48.3274 29.5838 48.7805 29.9311 49.3393C30.2634 49.9133 30.4447 50.5778 30.4447 51.3481C30.4296 52.1183 30.2634 52.7829 29.9311 53.3568Z" fill="white"/>
<path d="M44.4455 50.8799C43.796 50.6231 42.92 50.4268 41.8175 50.321L41.304 50.2606L39.3255 50.019C38.5703 49.9284 38.0266 49.7773 37.7246 49.581C37.4225 49.3846 37.2715 49.1128 37.2715 48.7503C37.2715 48.2821 37.5282 47.9347 38.0266 47.678C38.525 47.4212 39.2198 47.3004 40.0655 47.3004C40.5186 47.3004 40.9113 47.3306 41.2738 47.4061C41.4097 47.4363 41.5457 47.4665 41.6665 47.5119C42.1196 47.6478 42.4821 47.8592 42.7388 48.116C42.9956 48.3727 43.1466 48.6748 43.207 49.0222H45.9256C45.8803 48.2519 45.6084 47.5723 45.11 46.9984C44.6116 46.4244 43.9169 45.9713 43.0711 45.6391C42.5274 45.4276 41.9383 45.3068 41.2889 45.2162C40.9264 45.1709 40.5488 45.1558 40.1411 45.1558C39.0083 45.1558 38.0266 45.3068 37.1959 45.5938C36.3653 45.8807 35.7158 46.3036 35.2627 46.8624C34.7945 47.4061 34.568 48.0858 34.568 48.856C34.568 49.8528 34.9154 50.6231 35.6101 51.1668C36.3049 51.7256 37.4225 52.0881 38.963 52.2543L41.304 52.5261H41.3644C42.2102 52.6167 42.7841 52.7678 43.1013 52.9792C43.4033 53.1906 43.5695 53.4776 43.5695 53.8703C43.5695 54.3536 43.2976 54.7312 42.7539 55.003C42.3763 55.1994 41.893 55.3202 41.3191 55.3655C41.0775 55.3957 40.8207 55.4108 40.5337 55.4108C39.8843 55.4108 39.3104 55.3353 38.8271 55.1692C38.3438 55.003 37.936 54.7614 37.649 54.4744C37.3621 54.1724 37.1808 53.825 37.1204 53.4172H34.4019C34.4472 54.2328 34.7341 54.9577 35.2476 55.577C35.7611 56.1962 36.471 56.6795 37.3621 57.0118C38.2532 57.3591 39.3104 57.5253 40.4884 57.5253C40.7754 57.5253 41.0473 57.5253 41.3191 57.4951C42.1347 57.4346 42.8747 57.2836 43.5242 57.0269C44.4002 56.6946 45.0647 56.2415 45.548 55.6374C46.0313 55.0332 46.2729 54.3385 46.2729 53.5531C46.2729 52.8886 46.137 52.3449 45.8501 51.9069C45.5631 51.484 45.0949 51.1366 44.4455 50.8799Z" fill="white"/>
<path d="M55.3501 45.3975H51.8914L46.3184 57.2837H49.188L50.3207 54.7765H56.9057L58.0384 57.2837H60.908L55.3501 45.3975ZM51.3175 52.6017L53.6283 47.4817L55.9391 52.6017H51.3175Z" fill="white"/>
<path d="M141 47.5119V45.1558H132.95H131.727H130.383V57.042H131.727H141V54.6708H132.95V52.2694H141V49.9133H132.95V47.5119H141Z" fill="white"/>
<path d="M91.3558 49.8377H84.5443V45.1558H81.8408V57.042H84.5443V52.2089H91.3558V57.042H94.0593V45.1558H91.3558V49.8377Z" fill="white"/>
<path d="M108.921 47.8592C108.347 46.9379 107.532 46.2129 106.489 45.6994C105.447 45.1708 104.239 44.9141 102.85 44.9141C101.475 44.9141 100.252 45.1708 99.2097 45.6994C98.1676 46.2129 97.3671 46.9379 96.7781 47.8592C96.2042 48.7805 95.9021 49.8679 95.9021 51.1064C95.9021 52.3448 96.1891 53.4172 96.7781 54.3535C97.3671 55.2748 98.1676 55.9998 99.2097 56.5133C100.252 57.0268 101.46 57.2836 102.85 57.2836C104.239 57.2836 105.447 57.0268 106.489 56.5133C107.532 55.9998 108.347 55.2748 108.921 54.3535C109.51 53.4323 109.797 52.3448 109.797 51.1064C109.797 49.8679 109.51 48.7805 108.921 47.8592ZM106.55 53.1151C106.202 53.689 105.719 54.127 105.085 54.4291C104.466 54.7311 103.71 54.8822 102.834 54.8822C101.974 54.8822 101.234 54.7311 100.599 54.4291C99.9648 54.1119 99.4816 53.6739 99.1342 53.1151C98.7868 52.5412 98.6207 51.8766 98.6207 51.1064C98.6207 50.3361 98.7868 49.6716 99.1342 49.0976C99.4665 48.5237 99.9648 48.0857 100.599 47.7837C101.234 47.4816 101.974 47.3306 102.834 47.3306C103.71 47.3306 104.45 47.4816 105.085 47.7837C105.719 48.0857 106.202 48.5388 106.55 49.0976C106.882 49.6716 107.063 50.3361 107.063 51.1064C107.063 51.8615 106.897 52.5412 106.55 53.1151Z" fill="white"/>
<path d="M119.992 54.4593L115.793 45.1558H111.655V57.042H114.207V47.5723L118.602 57.042H121.381L125.776 47.5723V57.042H128.344V45.1558H124.206L119.992 54.4593Z" fill="white"/>
</svg>
